<?xml version="1.0" standalone="no"?>
<!DOCTYPE svg PUBLIC "-//W3C//DTD SVG 20010904//EN"
 "http://www.w3.org/TR/2001/REC-SVG-20010904/DTD/svg10.dtd">
<svg version="1.0" xmlns="http://www.w3.org/2000/svg"
 width="565.000000pt" height="565.000000pt" viewBox="0 0 565.000000 565.000000"
 preserveAspectRatio="xMidYMid meet">
<metadata>
Created by potrace 1.14, written by Peter Selinger 2001-2017
</metadata>
<g transform="translate(0.000000,565.000000) scale(0.100000,-0.100000)"
fill="#000000" stroke="none">
<path d="M2417 5406 c274 -254 484 -627 525 -933 28 -207 -57 -402 -214 -489
-49 -27 -61 -29 -153 -29 -90 0 -106 3 -160 29 -86 42 -181 141 -227 236 -58
120 -97 301 -99 463 l-1 72 -14 -55 c-50 -200 -57 -556 -15 -715 21 -79 65
-183 92 -217 13 -17 17 -16 68 9 102 51 228 27 338 -63 55 -45 84 -101 90
-175 7 -72 0 -99 -32 -131 -34 -34 -76 -41 -126 -22 -50 21 -73 61 -73 132 l0
52 -61 0 c-215 0 -478 -172 -620 -405 -16 -25 -11 -23 31 16 103 96 214 164
313 193 123 36 275 14 382 -54 172 -111 255 -339 152 -420 -42 -33 -128 -28
-185 10 -26 17 -54 42 -63 56 l-16 25 -50 -27 c-126 -69 -213 -223 -219 -390
-4 -92 -1 -198 5 -192 3 3 13 34 21 69 22 89 75 196 124 251 25 29 66 59 105
79 61 30 69 31 157 27 79 -4 102 -9 154 -35 102 -53 171 -147 181 -249 15
-147 -98 -237 -278 -220 l-69 6 0 -69 c0 -95 24 -213 59 -285 29 -61 89 -151
96 -144 2 2 -7 40 -21 83 -18 55 -27 105 -28 160 -1 71 2 85 26 127 48 81 163
118 213 67 37 -37 49 -118 49 -324 -1 -153 -4 -192 -23 -260 -65 -242 -211
-395 -375 -395 -110 0 -186 51 -242 162 -29 58 -40 55 -73 -21 -96 -223 -2
-569 262 -966 76 -113 180 -255 188 -255 4 0 -22 56 -56 125 -34 68 -82 182
-105 252 -37 110 -44 143 -48 234 -7 174 27 240 161 307 232 117 396 497 423
980 10 185 27 222 102 222 76 0 131 -66 132 -158 0 -54 -26 -181 -50 -244 -10
-26 -14 -48 -9 -48 14 0 90 136 116 206 28 79 44 183 36 240 l-5 42 -92 -2
c-76 -1 -99 3 -136 21 -56 28 -75 59 -91 147 -13 77 -7 148 18 221 23 68 102
146 168 168 190 63 349 -2 474 -191 30 -45 56 -80 58 -79 8 9 -34 143 -68 215
-68 141 -196 247 -324 268 l-41 6 -23 -56 c-24 -59 -85 -122 -130 -133 -70
-17 -111 40 -111 158 0 132 47 248 139 339 98 98 225 140 366 121 80 -11 185
-48 252 -86 89 -53 53 -13 -60 66 -143 100 -298 149 -466 149 -58 0 -116 -3
-128 -6 -21 -6 -21 -8 -7 -46 43 -122 -16 -210 -129 -195 -90 12 -161 137
-161 287 -1 138 49 221 163 274 38 17 65 21 159 21 l112 0 -5 60 c-33 335
-138 623 -323 885 -121 172 -358 389 -535 489 -37 22 -34 17 30 -43z"/>
</g>
</svg>
